<?xml version="1.0" standalone="no"?>
<!DOCTYPE svg PUBLIC "-//W3C//DTD SVG 20010904//EN"
 "http://www.w3.org/TR/2001/REC-SVG-20010904/DTD/svg10.dtd">
<svg version="1.0" xmlns="http://www.w3.org/2000/svg"
 width="1920.000000pt" height="1920.000000pt" viewBox="0 0 1920.000000 1920.000000"
 preserveAspectRatio="xMidYMid meet">

<g transform="translate(0.000000,1920.000000) scale(0.100000,-0.100000)"
fill="#000000" stroke="none">
<path d="M7387 13343 c-70 -4 -79 -6 -86 -27 -9 -23 -90 -477 -135 -754 -30
-191 -59 -257 -155 -353 -108 -108 -236 -156 -385 -146 -99 7 -557 125 -632
163 -110 55 -215 176 -250 288 -9 28 -19 102 -23 165 l-6 113 -92 -86 c-197
-186 -283 -356 -315 -626 -32 -278 34 -931 138 -1345 264 -1056 896 -1829
1889 -2311 510 -247 1056 -399 1710 -476 171 -20 708 -17 865 5 910 128 1561
357 2155 758 785 529 1285 1326 1455 2314 53 310 65 465 65 850 0 304 -2 358
-18 414 -24 88 -69 169 -130 233 -43 45 -63 57 -113 71 -118 33 -233 18 -489
-66 -283 -93 -340 -107 -431 -107 -179 0 -452 63 -1249 290 -996 283 -1420
389 -1960 490 -668 124 -1226 168 -1808 143z"/>
</g>
</svg>
