<?xml version="1.0" standalone="no"?>
<!DOCTYPE svg PUBLIC "-//W3C//DTD SVG 20010904//EN"
 "http://www.w3.org/TR/2001/REC-SVG-20010904/DTD/svg10.dtd">
<svg version="1.0" xmlns="http://www.w3.org/2000/svg"
 width="1920.000000pt" height="1080.000000pt" viewBox="0 0 1920.000000 1080.000000"
 preserveAspectRatio="xMidYMid meet">

<g transform="translate(0.000000,1080.000000) scale(0.100000,-0.100000)"
fill="#000000" stroke="none">
<path d="M0 5400 l0 -5400 9600 0 9600 0 0 5400 0 5400 -9600 0 -9600 0 0
-5400z m1207 3048 c195 -69 342 -175 435 -310 77 -115 115 -248 125 -440 3
-71 4 -128 1 -128 -3 0 -19 21 -35 48 -133 213 -177 278 -239 352 -39 47 -81
94 -93 105 l-22 19 9 -24 c103 -268 191 -429 310 -569 24 -28 41 -51 37 -51
-32 0 -167 51 -247 92 -146 76 -265 200 -345 360 -61 122 -103 312 -116 526
l-4 74 35 -7 c19 -3 86 -25 149 -47z m2563 -49 c413 -66 719 -321 848 -704 36
-110 36 -110 37 -285 l0 -175 -38 -111 c-120 -353 -416 -604 -791 -670 -104
-18 -303 -18 -400 0 -155 30 -303 113 -428 239 -64 64 -87 96 -128 180 -53
109 -81 217 -79 309 l1 53 12 -50 c63 -254 328 -496 621 -566 197 -47 413 -19
598 78 73 38 111 67 188 143 86 85 102 107 152 206 65 129 87 220 87 356 0
127 -21 216 -75 324 -103 205 -291 359 -515 424 -113 33 -305 38 -431 12 -212
-44 -417 -169 -544 -332 -108 -139 -189 -323 -220 -501 -18 -101 -21 -344 -5
-449 23 -149 90 -385 140 -495 66 -145 74 -203 37 -287 -90 -203 -368 -208
-485 -9 -23 39 -27 57 -27 121 0 65 4 82 31 130 37 66 101 113 178 131 52 11
54 13 41 33 -28 43 -94 224 -109 299 -37 176 -38 415 -5 627 15 100 89 296
150 399 119 199 291 357 506 465 76 38 253 93 338 106 76 11 242 11 315 -1z
m-1446 -131 c59 -206 29 -456 -73 -606 -22 -33 -66 -82 -97 -110 -59 -53 -139
-101 -149 -90 -10 10 104 460 126 494 32 53 21 48 -32 -13 -56 -64 -120 -188
-143 -276 -19 -72 -40 -250 -33 -283 9 -48 -12 -34 -27 18 -24 83 -36 175 -36
273 1 265 100 426 367 595 43 27 79 49 80 49 1 1 9 -23 17 -51z m1381 -443
c71 -19 168 -80 224 -140 154 -167 147 -455 -15 -568 -38 -27 -44 -28 -83 -17
l-42 11 32 37 c69 78 101 199 79 295 -31 133 -142 228 -297 253 -34 5 -140
-19 -186 -42 -42 -22 -110 -96 -138 -151 -34 -68 -35 -206 -1 -275 40 -81 105
-144 193 -187 l79 -38 -45 -6 c-137 -19 -283 60 -348 188 -23 45 -47 147 -47
196 0 63 26 165 56 220 35 63 112 141 178 178 100 58 245 76 361 46z m-2540
-275 c96 -18 244 -69 323 -111 83 -44 354 -221 348 -227 -6 -5 -253 26 -345
43 -129 25 -264 46 -268 41 -8 -7 129 -79 222 -117 257 -103 504 -163 790
-192 l130 -13 -35 -18 c-19 -10 -42 -24 -50 -31 -32 -26 -220 -98 -325 -125
-215 -54 -334 -62 -497 -34 -240 40 -423 132 -585 292 -131 130 -252 330 -286
472 l-6 26 102 2 c56 2 104 6 107 9 8 9 308 -5 375 -17z m2457 -137 c27 -31
30 -58 8 -86 -26 -33 -53 -41 -82 -26 -51 27 -60 61 -27 103 25 31 77 36 101
9z m6668 -795 c54 -11 121 -38 191 -78 55 -31 200 -179 231 -236 36 -66 73
-182 88 -272 10 -58 9 -91 -1 -155 -7 -45 -16 -86 -21 -92 -4 -5 -8 -19 -8
-31 0 -13 -4 -26 -10 -29 -5 -3 -10 -12 -10 -20 0 -27 -72 -136 -130 -199 -65
-69 -169 -144 -213 -153 -15 -3 -30 -10 -33 -14 -3 -5 -16 -9 -29 -9 -13 0
-26 -4 -29 -9 -3 -4 -28 -11 -56 -15 -27 -3 -73 -9 -101 -12 -94 -12 -276 28
-375 83 -100 55 -171 119 -235 213 -123 179 -150 380 -81 595 56 171 181 308
355 388 80 38 127 48 242 56 110 7 144 6 225 -11z m2450 0 c64 -19 144 -59
206 -103 94 -67 94 -66 42 -127 -24 -29 -59 -74 -78 -100 -18 -27 -36 -48 -40
-48 -4 0 -15 9 -26 21 -27 30 -92 72 -144 93 -67 26 -205 25 -263 -3 -61 -30
-84 -90 -55 -144 31 -59 99 -87 358 -146 68 -16 149 -52 197 -89 61 -46 77
-65 110 -127 23 -44 26 -62 26 -140 0 -118 -25 -185 -98 -263 -91 -98 -234
-152 -405 -152 -79 0 -172 16 -255 45 -83 29 -232 134 -269 190 -14 22 -13 26
35 86 28 35 61 77 75 92 l24 29 42 -37 c46 -39 149 -91 237 -120 111 -36 267
-7 320 61 29 37 26 65 -11 107 -32 34 -69 51 -193 86 -248 69 -330 106 -399
178 -71 75 -89 121 -90 233 0 89 2 99 33 158 74 136 185 209 356 232 71 10
215 3 265 -12z m-6820 -53 c14 -27 48 -102 74 -165 27 -63 56 -133 66 -155 10
-22 37 -83 60 -135 23 -52 53 -120 67 -150 71 -163 89 -199 99 -200 6 0 30 57
54 128 23 70 66 177 95 237 29 61 62 139 74 174 12 35 38 98 58 140 19 42 46
100 59 129 l25 52 144 0 c145 0 145 0 145 -23 0 -13 -4 -27 -8 -33 -4 -5 -14
-27 -21 -49 -15 -48 -71 -183 -116 -280 -43 -94 -85 -191 -85 -198 0 -3 -18
-45 -40 -93 -23 -48 -59 -130 -81 -183 -23 -53 -51 -118 -64 -146 -12 -27 -46
-105 -75 -172 -32 -75 -58 -123 -69 -125 -9 -2 -61 -4 -115 -3 -77 0 -101 3
-107 15 -9 18 -87 186 -99 215 -4 11 -23 54 -42 95 -19 41 -54 120 -78 175
-24 55 -60 137 -81 182 -21 45 -50 110 -65 145 -14 35 -36 86 -49 113 -66 144
-83 185 -104 240 -12 33 -27 68 -32 77 -24 47 -18 49 139 46 l147 -3 25 -50z
m1605 32 c11 -41 1 -1265 -10 -1274 -5 -4 -70 -7 -142 -5 l-133 3 0 643 c0
353 3 646 7 649 3 4 66 7 139 7 131 0 134 -1 139 -23z m618 3 c7 -11 92 -102
188 -202 96 -100 219 -230 274 -288 156 -164 193 -200 204 -200 7 0 12 116 13
353 l3 352 138 3 137 3 2 -501 c2 -275 3 -566 3 -647 l0 -148 -70 -5 c-38 -3
-77 -2 -85 3 -8 5 -32 30 -52 56 -21 25 -57 66 -80 91 -58 61 -473 505 -526
563 -24 26 -47 47 -53 47 -5 0 -9 -142 -9 -364 0 -200 -3 -371 -6 -380 -9 -24
-269 -24 -278 0 -8 21 -8 1269 1 1277 3 4 46 7 94 7 76 0 90 -3 102 -20z
m5579 8 c2 -7 4 -42 3 -78 0 -36 -1 -323 -3 -638 l-2 -573 -132 3 -133 3 -3
635 c-1 349 0 641 3 648 3 9 39 12 134 12 94 0 130 -3 133 -12z m760 0 c9 -7
63 -80 120 -163 57 -82 110 -160 118 -171 8 -12 53 -76 98 -143 46 -66 88
-121 93 -121 8 0 94 124 216 313 29 44 89 127 134 184 95 119 86 115 264 111
l120 -3 0 -645 0 -645 -120 -3 c-66 -1 -130 0 -143 3 l-22 5 0 390 c1 215 -2
390 -5 391 -18 2 -87 -79 -171 -202 -211 -307 -294 -412 -294 -370 0 4 -37 60
-82 124 -46 63 -132 184 -192 268 -122 173 -145 201 -157 193 -5 -3 -9 -182
-9 -399 0 -269 -3 -396 -11 -400 -19 -13 -273 -5 -281 8 -11 17 -7 1248 4
1270 8 15 26 17 156 17 103 0 153 -4 164 -12z m2077 -17 c250 -86 370 -321
294 -579 -46 -158 -194 -274 -402 -317 -44 -9 -85 -14 -90 -11 -21 14 -29 -29
-33 -184 -2 -91 -6 -169 -10 -175 -4 -6 -56 -8 -140 -5 l-133 5 -3 625 c-1
344 0 636 3 649 l6 24 222 -5 c195 -5 230 -8 286 -27z m2079 -108 l3 -132 -27
-7 c-14 -4 -127 -3 -250 0 -123 4 -273 4 -334 1 l-110 -8 0 -118 0 -119 283
-2 282 -3 0 -122 c0 -67 -3 -125 -7 -128 -4 -4 -119 -6 -256 -6 -148 1 -260
-3 -276 -9 l-27 -10 3 -107 3 -108 365 -5 c201 -3 366 -7 368 -8 1 -1 2 -60 2
-131 l0 -129 -482 -7 c-266 -4 -494 -6 -508 -4 l-25 4 -3 647 -2 647 497 -2
498 -2 3 -132z m-16612 -34 c52 -25 100 -77 127 -138 63 -144 -9 -316 -149
-357 -170 -49 -330 54 -359 232 -17 105 74 241 181 274 56 16 155 11 200 -11z
m1135 -88 c97 -46 142 -58 265 -74 l88 -12 14 -50 c13 -43 12 -55 -2 -101 -35
-110 -108 -172 -216 -181 -122 -11 -223 45 -275 155 -23 48 -26 66 -23 122 4
56 46 180 61 180 2 0 42 -18 88 -39z m782 -241 c36 -40 36 -87 1 -129 -22 -27
-32 -31 -74 -31 -42 0 -52 4 -74 31 -87 103 56 229 147 129z m7623 -76 c50
-33 78 -92 78 -165 1 -55 -3 -72 -27 -107 -47 -72 -148 -108 -215 -77 -54 25
-100 62 -116 93 -20 40 -27 103 -15 144 11 43 86 124 120 131 45 10 148 -2
175 -19z m-9860 -210 c83 -50 138 -154 138 -255 0 -65 -47 -155 -101 -195 -84
-63 -225 -62 -316 4 -59 42 -107 137 -107 214 0 97 56 195 135 235 51 27 78
32 141 30 48 -2 73 -9 110 -33z m659 17 c88 -40 155 -157 155 -270 0 -158
-147 -274 -306 -241 -165 34 -268 216 -204 358 39 86 86 131 165 160 48 17
145 14 190 -7z m648 8 c92 -25 187 -165 187 -275 0 -96 -84 -211 -172 -235
-68 -18 -178 -7 -230 24 -121 71 -163 218 -99 345 61 122 185 177 314 141z
m681 -1 c89 -27 186 -166 186 -269 0 -55 -35 -141 -74 -181 -51 -53 -100 -72
-181 -72 -118 0 -203 54 -251 159 -95 204 102 427 320 363z m13565 -264 l61
-7 0 -133 c0 -100 -3 -134 -12 -134 -80 -3 -362 2 -374 7 -12 4 -14 27 -12
132 l3 126 85 6 c138 9 184 9 249 3z m-15245 -355 c95 -35 176 -155 176 -259
0 -61 -37 -147 -82 -190 -91 -89 -249 -93 -351 -9 -54 44 -102 149 -101 219 1
86 52 170 130 216 81 48 146 54 228 23z m681 -3 c139 -64 207 -244 141 -373
-66 -132 -214 -182 -348 -119 -101 48 -157 135 -158 244 0 189 200 325 365
248z m672 3 c165 -70 224 -284 117 -424 -85 -112 -269 -126 -382 -29 -60 51
-97 133 -97 214 0 57 4 71 36 120 77 119 211 168 326 119z m-1012 -633 c179
-84 212 -335 60 -456 -39 -31 -119 -60 -165 -60 -91 0 -195 68 -240 156 -36
72 -35 171 2 236 75 127 223 181 343 124z m680 -1 c83 -40 120 -83 150 -174
54 -164 -74 -341 -247 -341 -184 0 -331 208 -259 366 23 50 84 120 122 140 76
39 166 42 234 9z m7919 -57 c17 -53 50 -145 66 -183 5 -11 10 -29 12 -40 7
-42 30 -17 59 65 26 74 53 156 65 198 2 8 23 12 58 12 47 0 58 -4 70 -22 13
-20 91 -200 109 -250 4 -10 10 -18 14 -18 4 0 29 64 54 143 l46 142 68 3 c37
2 72 -1 77 -6 6 -6 -15 -82 -51 -193 -96 -291 -101 -306 -101 -321 0 -32 -35
-49 -96 -46 l-59 3 -31 90 c-31 90 -35 100 -73 188 -22 50 -41 62 -41 24 0
-12 -11 -58 -25 -102 -14 -44 -30 -98 -37 -120 -21 -75 -32 -85 -92 -85 -39 0
-57 5 -70 19 -9 10 -52 121 -95 247 -43 126 -84 242 -90 257 -6 16 -11 33 -11
38 0 5 35 9 79 9 l79 0 16 -52z m1111 -233 l0 -280 -69 -3 c-49 -2 -72 1 -77
10 -8 12 -2 519 6 545 2 7 27 11 72 10 l68 -2 0 -280z m450 257 c17 -15 71
-72 120 -127 92 -102 105 -115 117 -115 4 0 9 60 10 133 l3 132 70 0 70 0 3
-259 c2 -143 1 -270 -2 -283 -6 -20 -12 -23 -59 -23 -60 1 -67 5 -131 85 -79
98 -180 214 -188 214 -4 1 -9 -65 -10 -146 l-3 -148 -59 -3 c-32 -2 -63 1 -68
6 -5 5 -11 134 -14 286 l-5 276 58 0 c50 0 63 -4 88 -28z m1136 24 c2 -3 2
-33 -1 -68 l-5 -63 -135 -1 -135 0 -3 -41 -3 -41 120 1 c65 1 122 -1 126 -5 8
-8 9 -98 0 -106 -2 -3 -59 -4 -125 -3 l-120 2 0 -50 0 -50 143 -3 142 -3 0
-65 0 -65 -209 -3 c-161 -2 -211 1 -218 10 -9 16 -11 542 -1 551 7 7 417 10
424 3z m-3541 -167 c0 -18 -23 -19 -832 -20 -458 -1 -852 -3 -875 -3 -38 -2
-43 0 -43 20 l0 23 857 1 c471 0 859 2 861 5 10 9 32 -9 32 -26z m6008 -1 c3
-17 -48 -18 -870 -20 -480 -2 -877 0 -882 4 -5 4 -6 14 -3 22 6 15 93 16 879
14 819 -3 873 -4 876 -20z m-13468 -418 c10 0 44 -18 77 -40 143 -95 168 -290
54 -413 -62 -68 -189 -96 -288 -63 -54 18 -119 77 -148 136 -22 44 -30 143
-16 196 30 113 164 205 275 188 16 -2 36 -4 46 -4z"/>
<path d="M2570 6431 c0 -5 8 -12 18 -15 44 -14 111 -67 140 -111 25 -37 33
-44 38 -31 8 21 -21 98 -46 121 -36 33 -150 60 -150 36z"/>
<path d="M10019 6346 c-132 -35 -242 -154 -280 -304 -10 -43 -11 -66 -1 -125
24 -141 99 -239 230 -299 57 -27 79 -31 147 -31 182 0 313 99 367 277 86 281
-180 559 -463 482z"/>
<path d="M16334 6348 c-5 -7 -8 -99 -6 -206 l3 -194 67 7 c78 8 113 26 156 78
29 37 31 43 31 126 0 81 -2 91 -28 124 -36 48 -67 63 -148 71 -49 5 -68 4 -75
-6z"/>
<path d="M1880 6426 c0 -2 24 -16 54 -30 52 -25 89 -59 128 -116 l17 -25 0 36
c2 74 -72 139 -156 139 -24 0 -43 -2 -43 -4z"/>
<path d="M1546 5822 c-3 -5 6 -13 20 -16 60 -15 164 -107 164 -145 0 -11 3
-12 11 -4 25 25 -20 122 -68 147 -38 19 -119 31 -127 18z"/>
<path d="M2228 5825 c-4 -4 19 -20 50 -35 52 -24 132 -98 132 -122 0 -4 5 -8
11 -8 18 0 4 65 -21 100 -12 17 -35 37 -51 45 -34 18 -111 30 -121 20z"/>
<path d="M2900 5823 c0 -5 15 -15 34 -21 46 -17 80 -45 128 -106 l41 -51 -6
44 c-10 78 -63 128 -145 138 -30 3 -52 2 -52 -4z"/>
<path d="M3624 5790 c74 -38 79 -42 115 -97 23 -35 32 -42 37 -30 7 20 -13 86
-35 111 -24 28 -74 46 -128 46 l-48 0 59 -30z"/>
<path d="M1920 5193 c48 -17 150 -111 150 -137 0 -9 5 -16 10 -16 15 0 12 57
-4 88 -30 57 -61 76 -134 79 l-67 3 45 -17z"/>
<path d="M2590 5189 c60 -27 106 -63 140 -110 31 -43 46 -38 35 11 -8 37 -48
86 -86 105 -15 8 -52 15 -81 15 l-53 0 45 -21z"/>
<path d="M3242 5213 c-7 -3 13 -17 45 -32 54 -26 94 -62 135 -121 l17 -25 0
36 c1 40 -29 92 -69 120 -26 18 -105 32 -128 22z"/>
<path d="M2254 4557 c62 -33 110 -74 138 -117 21 -33 32 -20 23 26 -13 71 -93
124 -185 124 l-35 -1 59 -32z"/>
<path d="M2904 4575 c11 -8 25 -15 31 -15 24 0 97 -62 125 -106 31 -49 46 -44
35 12 -13 72 -87 124 -175 124 -33 -1 -34 -2 -16 -15z"/>
<path d="M2605 3941 c52 -30 135 -111 135 -133 0 -9 3 -9 11 -1 16 16 2 68
-28 104 -34 40 -74 59 -125 59 l-43 0 50 -29z"/>
</g>
</svg>
