<?xml version="1.0" standalone="no"?>
<!DOCTYPE svg PUBLIC "-//W3C//DTD SVG 20010904//EN"
 "http://www.w3.org/TR/2001/REC-SVG-20010904/DTD/svg10.dtd">
<svg version="1.0" xmlns="http://www.w3.org/2000/svg"
 width="1024.000000pt" height="1024.000000pt" viewBox="0 0 1024.000000 1024.000000"
 preserveAspectRatio="xMidYMid meet">

<g transform="translate(0.000000,1024.000000) scale(0.100000,-0.100000)"
fill="#000000" stroke="none">
<path d="M0 5120 l0 -5120 5120 0 5120 0 0 5120 0 5120 -5120 0 -5120 0 0
-5120z m3866 2955 c49 -14 132 -47 184 -73 77 -37 111 -62 176 -127 132 -130
182 -254 191 -470 3 -82 2 -126 -4 -120 -5 6 -38 57 -73 115 -35 58 -81 130
-103 160 -49 67 -148 182 -153 177 -5 -5 85 -217 129 -302 40 -79 82 -140 145
-214 24 -28 39 -51 34 -51 -22 0 -160 54 -227 88 -47 24 -95 61 -146 112 -153
153 -225 330 -244 595 -3 50 -8 100 -11 113 -6 27 -5 27 102 -3z m2435 -88
c339 -89 600 -367 659 -703 8 -43 11 -117 8 -190 -4 -100 -10 -134 -38 -217
-75 -224 -256 -418 -485 -519 -126 -56 -216 -73 -385 -73 -135 0 -165 3 -230
23 -296 93 -487 323 -505 607 -4 59 -3 65 5 35 66 -225 258 -415 505 -497 72
-24 95 -27 220 -27 125 0 148 3 220 27 126 42 220 100 308 188 65 66 86 97
131 188 64 130 81 213 73 346 -19 296 -248 551 -562 626 -160 38 -353 17 -513
-57 -146 -66 -264 -168 -353 -303 -210 -320 -216 -757 -18 -1228 58 -138 53
-218 -20 -296 -90 -98 -242 -97 -341 2 -39 39 -50 59 -61 104 -15 69 -2 144
35 198 27 39 102 83 160 94 22 3 35 10 29 13 -12 8 -64 126 -86 197 -48 151
-61 396 -32 590 17 114 69 269 122 365 135 245 389 441 661 509 111 28 124 30
267 26 99 -2 153 -9 226 -28z m-1371 -168 c33 -208 -19 -405 -140 -528 -54
-55 -142 -116 -159 -109 -11 4 89 402 113 448 l18 35 -34 -39 c-112 -131 -166
-284 -169 -476 l-1 -75 -15 35 c-27 61 -46 198 -40 295 12 218 103 355 322
490 l70 43 12 -28 c7 -15 17 -57 23 -91z m1228 -323 c64 -23 145 -81 186 -133
55 -71 79 -143 80 -244 0 -74 -3 -93 -28 -143 -43 -87 -126 -138 -174 -107
-11 6 -6 19 22 55 43 57 60 112 60 191 0 105 -61 197 -163 247 -64 32 -188 32
-247 1 -51 -27 -109 -86 -136 -138 -30 -58 -36 -160 -12 -225 32 -89 127 -178
218 -205 l40 -12 -48 -7 c-209 -32 -385 171 -346 396 30 171 155 303 322 338
58 12 173 5 226 -14z m-2338 -227 c197 -24 313 -70 516 -204 88 -58 154 -105
148 -105 -23 0 -241 31 -384 55 -84 14 -154 24 -157 22 -11 -11 198 -109 332
-155 146 -51 443 -109 635 -124 l35 -3 -55 -32 c-116 -69 -293 -130 -443 -154
-106 -16 -299 -6 -402 21 -179 48 -365 169 -478 310 -93 117 -186 290 -187
347 0 21 5 22 93 26 209 7 266 7 347 -4z m2239 -135 c26 -32 26 -46 4 -72 -30
-34 -59 -37 -88 -8 -30 30 -32 59 -5 86 28 28 64 25 89 -6z m-1426 -833 c78
-30 147 -137 147 -228 0 -163 -136 -265 -294 -219 -138 40 -214 204 -151 325
20 41 75 91 120 112 43 20 137 25 178 10z m1168 -140 c30 -6 76 -12 102 -13
60 -1 72 -16 72 -93 0 -150 -136 -245 -288 -201 -147 43 -211 195 -143 338
l26 56 88 -38 c48 -21 112 -43 143 -49z m504 -135 c57 -24 73 -90 34 -140 -16
-21 -29 -26 -63 -26 -114 0 -121 154 -8 179 1 1 18 -5 37 -13z m-1960 -265
c88 -40 138 -124 139 -231 2 -122 -76 -208 -199 -217 -146 -12 -256 87 -257
233 -1 66 39 153 84 185 70 50 163 62 233 30z m597 5 c45 -19 112 -93 129
-142 35 -104 2 -220 -79 -277 -41 -28 -57 -32 -122 -35 -70 -3 -79 -1 -130 30
-73 44 -110 105 -117 190 -6 71 7 113 53 167 58 70 184 101 266 67z m609 -13
c82 -44 129 -126 129 -225 0 -122 -94 -217 -215 -218 -101 0 -176 41 -217 118
-36 67 -42 113 -23 177 41 143 202 216 326 148z m584 8 c119 -56 179 -210 126
-326 -19 -43 -78 -100 -118 -116 -38 -14 -140 -11 -181 7 -142 59 -193 250
-95 363 71 84 181 113 268 72z m-1474 -549 c133 -69 173 -259 77 -368 -99
-113 -284 -102 -366 21 -70 106 -64 207 15 295 74 82 179 102 274 52z m562 16
c96 -29 175 -158 162 -264 -24 -193 -259 -268 -399 -128 -92 93 -89 259 7 340
71 60 147 77 230 52z m623 -12 c140 -65 181 -269 76 -379 -98 -104 -280 -90
-360 26 -78 112 -66 227 31 313 77 68 164 82 253 40z m-938 -538 c93 -23 172
-137 172 -247 0 -56 -42 -135 -89 -169 -189 -137 -435 39 -369 262 17 58 92
131 154 150 61 18 74 19 132 4z m614 -6 c92 -33 148 -111 156 -215 6 -78 -17
-136 -74 -185 -101 -90 -246 -77 -336 28 -117 135 -48 337 129 379 55 13 73
12 125 -7z m-274 -554 c53 -25 95 -75 116 -140 22 -69 20 -114 -8 -174 -69
-148 -260 -181 -376 -64 -71 71 -91 178 -49 270 25 56 44 77 91 101 81 42 148
44 226 7z m-3376 -977 c42 -1 47 -4 57 -32 22 -62 174 -399 181 -399 3 0 14
26 24 58 10 31 34 90 52 130 19 41 34 76 34 78 0 17 75 164 84 165 49 7 136 2
136 -7 0 -11 -50 -133 -113 -279 -19 -44 -61 -141 -93 -215 -31 -74 -62 -141
-67 -147 -5 -8 -32 -13 -64 -13 l-54 0 -36 78 c-91 198 -244 546 -249 567 -5
21 -3 22 28 20 18 -2 54 -3 80 -4z m831 1 l37 -2 0 -330 0 -331 -72 3 -73 3
-3 320 c-1 176 0 325 2 331 2 6 19 10 38 9 18 -1 50 -2 71 -3z m519 -184 l177
-183 1 183 0 182 70 0 70 0 0 -327 0 -328 -39 -3 c-26 -1 -43 3 -48 12 -11 19
-345 376 -352 376 -3 0 -6 -87 -6 -192 l0 -193 -70 0 -70 0 -3 334 -2 334 47
-6 c46 -5 51 -9 225 -189z m993 160 c133 -70 215 -232 186 -368 -59 -277 -399
-372 -599 -169 -109 111 -123 308 -29 430 79 103 163 141 302 136 73 -3 99 -8
140 -29z m1220 8 c28 -13 62 -35 77 -48 l28 -23 -42 -53 -41 -53 -21 20 c-66
62 -213 68 -231 9 -16 -49 31 -82 162 -113 131 -31 193 -91 193 -187 -1 -132
-121 -219 -287 -205 -74 6 -172 49 -217 96 l-28 30 37 45 c21 25 39 46 42 46
2 0 19 -11 36 -23 79 -58 200 -76 251 -36 57 45 25 80 -107 118 -155 46 -209
85 -227 167 -19 81 25 164 109 207 75 37 191 39 266 3z m455 -311 l0 -335 -32
0 c-18 0 -50 3 -70 6 l-38 7 0 323 0 323 68 4 c37 2 68 4 70 5 1 1 2 -149 2
-333z m496 170 c59 -86 110 -152 114 -148 4 5 33 49 65 98 33 50 79 116 104
148 l44 57 78 0 79 0 0 -324 0 -324 -71 -4 c-45 -2 -73 1 -76 8 -2 6 -3 97 -1
202 2 125 -1 191 -7 189 -8 -3 -153 -198 -206 -277 -16 -24 -12 -28 -208 245
l-36 50 -3 -213 -2 -212 -75 0 -75 0 0 330 0 330 84 0 84 0 108 -155z m969
136 c49 -22 102 -75 121 -118 8 -18 14 -59 14 -91 0 -121 -79 -210 -210 -234
l-57 -11 -7 -60 c-3 -33 -6 -75 -6 -93 l0 -34 -70 0 -70 0 0 330 0 330 123 0
c97 0 130 -4 162 -19z m1035 -45 c0 -44 -4 -65 -14 -69 -7 -3 -78 -4 -157 -2
-79 2 -156 1 -171 -2 -27 -5 -28 -8 -28 -64 l0 -59 145 0 145 0 0 -65 0 -65
-140 0 -140 0 0 -60 0 -60 183 -2 182 -3 3 -67 3 -68 -261 0 -260 0 0 325 0
325 255 0 255 0 0 -64z m-3592 -229 c8 -6 21 -26 28 -42 43 -103 -82 -180
-162 -100 -61 61 3 174 90 160 16 -3 36 -11 44 -18z m2922 -291 c0 -36 -3 -67
-7 -69 -5 -3 -51 -2 -104 0 l-95 6 -1 63 -1 64 104 0 104 0 0 -64z m-3221
-511 c14 -41 27 -75 30 -75 4 0 18 33 32 73 24 66 28 72 56 75 29 3 32 0 58
-65 16 -37 31 -71 35 -76 3 -4 17 26 30 68 l24 75 38 0 c21 0 38 -3 38 -7 0
-5 -20 -69 -44 -143 l-45 -135 -33 -3 -34 -3 -34 88 -33 88 -27 -85 c-25 -80
-28 -85 -57 -88 -16 -2 -34 3 -40 10 -5 7 -28 65 -50 128 -23 63 -44 123 -48
133 -6 15 -1 17 36 17 l44 0 24 -75z m551 -70 l0 -145 -40 0 -40 0 0 138 c0
76 3 142 7 145 3 4 21 7 40 7 l33 0 0 -145z m282 73 l67 -73 1 73 0 72 34 0
33 0 5 -127 c6 -154 4 -163 -33 -163 -22 0 -37 12 -72 58 -25 31 -54 66 -66
76 l-21 19 0 -76 0 -77 -34 0 c-32 0 -34 1 -39 48 -4 26 -6 91 -7 145 l0 97
32 0 c28 0 43 -11 100 -72z m524 50 c-3 -13 -6 -29 -6 -35 0 -9 -21 -13 -70
-13 -63 0 -70 -2 -70 -20 0 -18 7 -20 65 -20 l65 0 0 -30 0 -30 -65 0 c-63 0
-65 -1 -65 -25 0 -24 2 -25 76 -25 l75 0 -3 -32 -3 -33 -104 -3 c-77 -2 -107
1 -113 10 -9 15 -11 201 -2 247 l7 31 109 0 c110 0 110 0 104 -22z m-1806 -64
c0 -12 -65 -14 -445 -14 -287 0 -445 4 -445 10 0 6 152 11 423 12 232 2 432 4
445 5 13 1 22 -4 22 -13z m3060 -5 c0 -5 -196 -9 -450 -9 -290 0 -450 4 -450
10 0 9 824 20 878 11 12 -2 22 -7 22 -12z"/>
<path d="M5171 6248 c45 -24 71 -46 96 -82 l33 -48 0 33 c0 75 -64 129 -151
129 l-41 0 63 -32z"/>
<path d="M4527 6274 c-3 -3 18 -18 46 -33 32 -17 65 -45 87 -74 33 -45 35 -46
38 -22 4 31 -24 81 -58 105 -26 18 -102 34 -113 24z"/>
<path d="M4237 5730 c48 -19 105 -63 132 -101 32 -44 45 -40 31 11 -18 63 -72
100 -142 99 -35 0 -39 -2 -21 -9z"/>
<path d="M4835 5728 c54 -20 105 -58 134 -98 22 -31 30 -36 35 -24 8 20 -18
75 -50 105 -19 18 -38 23 -87 26 -56 3 -59 2 -32 -9z"/>
<path d="M5456 5716 c30 -14 68 -44 97 -77 31 -36 47 -48 47 -36 0 33 -27 83
-59 110 -26 22 -43 27 -84 27 l-52 0 51 -24z"/>
<path d="M6010 5736 c0 -2 25 -16 55 -30 36 -18 65 -42 86 -71 34 -48 53 -50
43 -7 -16 67 -72 112 -141 112 -24 0 -43 -2 -43 -4z"/>
<path d="M4565 5176 c48 -22 125 -94 125 -117 0 -5 5 -7 11 -4 13 8 2 61 -19
93 -22 33 -64 52 -119 52 l-48 0 50 -24z"/>
<path d="M5158 5174 c28 -14 72 -48 97 -76 44 -50 45 -50 45 -22 0 70 -66 124
-152 124 l-42 0 52 -26z"/>
<path d="M5758 5174 c47 -23 122 -95 122 -116 0 -4 5 -8 10 -8 15 0 12 38 -7
77 -22 48 -66 73 -127 73 l-50 0 52 -26z"/>
<path d="M4847 4624 c29 -14 72 -48 98 -76 25 -28 48 -48 51 -45 11 11 -8 68
-32 97 -27 31 -77 50 -134 50 l-35 -1 52 -25z"/>
<path d="M5410 4645 c0 -3 17 -12 38 -20 42 -18 95 -65 123 -110 11 -18 19
-24 20 -15 5 62 -25 114 -77 136 -32 13 -104 20 -104 9z"/>
<path d="M5155 4081 c52 -30 125 -101 125 -124 0 -6 5 -4 11 5 7 13 5 30 -9
61 -15 34 -30 49 -64 66 -24 11 -60 21 -79 21 l-34 0 50 -29z"/>
<path d="M3967 2989 c-49 -26 -94 -89 -102 -143 -34 -223 272 -315 366 -111
45 98 -6 227 -104 264 -44 17 -118 12 -160 -10z"/>
<path d="M7212 2908 l4 -103 35 3 c69 7 106 54 95 122 -7 48 -46 80 -98 80
l-40 0 4 -102z"/>
</g>
</svg>
